<?xml version="1.0" standalone="no"?><!DOCTYPE svg PUBLIC "-//W3C//DTD SVG 1.1//EN"
        "http://www.w3.org/Graphics/SVG/1.1/DTD/svg11.dtd">
<svg t="1719389776925" class="icon" viewBox="0 0 1024 1024" version="1.1" xmlns="http://www.w3.org/2000/svg"
     p-id="15328" xmlns:xlink="http://www.w3.org/1999/xlink">
    <path d="M512 0Q294.86 5.71 150.28 150.28 5.71 294.86 0 512q5.71 217.14 150.28 361.71Q294.86 1018.29 512 1024q217.14-5.71 361.71-150.29Q1018.29 729.14 1024 512q-5.71-217.14-150.29-361.72Q729.14 5.71 512 0z m0 950.86q-186.29-4.57-310.29-128.57-124-124-128.57-310.29 4.57-186.29 128.57-310.29 124-124 310.29-128.57 186.29 4.57 310.29 128.57 124 124 128.57 310.29-4.57 186.29-128.57 310.29-124 124-310.29 128.57z m256-548.57q-2.29-77.72-53.71-129.15-51.43-51.43-129.15-53.71H292.57q-16 0-26.29 10.28Q256 239.99 256 255.99t10.28 26.28q10.29 10.29 26.29 10.29h292.57q46.86 1.14 77.72 32t30.86 77.71q0 46.86-30.86 77.72t-77.72 32H402.29V402.28q0-16-10.29-26.29t-26.29-10.29q-16 0-26.29 10.29-10.28 10.29-10.28 26.29v329.14h-36.57q-16 0-26.29 10.28Q256 751.99 256 767.99t10.28 26.29q10.29 10.28 26.29 10.28h146.29q16 0 26.28-10.28 10.29-10.29 10.29-26.29t-10.29-26.29q-10.28-10.28-26.28-10.28h-36.57V585.13h90.28l134.86 203.43 5.71 5.72q4.57 4.57 10.29 6.85l2.28 1.15q5.72 2.28 12.58 2.28h73.14q16 0 26.28-10.28Q768 783.99 768 767.99t-10.29-26.29q-10.28-10.28-26.28-10.28h-53.72l-97.14-146.29h4.57q77.72-2.28 129.15-53.71 51.42-51.43 53.71-129.14z"
          p-id="15329"></path>
</svg>