<svg t="1717144967127" class="icon" viewBox="0 0 1024 1024" version="1.1" xmlns="http://www.w3.org/2000/svg"
     p-id="15450" width="128" height="128">
    <path d="M52.16 997.76a26.816 26.816 0 0 1-26.88-26.624V883.84c0-172.48 104.576-325.376 266.368-389.632l27.84-11.072-23.68-18.368a243.008 243.008 0 0 1-94.592-192.576c0-135.04 110.72-244.928 246.72-244.928s246.72 109.952 246.72 244.928c0 75.392-34.56 145.536-94.656 192.576l-16 12.48c-23.616 20.992-70.016 35.264-130.432 40H451.2l-3.072-0.128c-9.408 0-19.2 0.384-29.12 1.28l-10.624 0.768-4.672 0.64c-185.344 22.08-324.8 178.56-324.8 364.032v60.8h405.44l2.24 4.48c6.08 12.352 12.992 24.448 20.544 35.84l8.32 12.736H52.16v0.064zM447.936 80.192a192.64 192.64 0 0 0-193.024 191.872c0 105.792 86.656 191.872 193.024 191.872 106.432 0 193.088-86.08 193.088-191.872A192.832 192.832 0 0 0 448 80.256z"
          fill="#333333" p-id="15451"></path>
    <path d="M447.936 31.936c-133.504 0-242.048 107.712-242.048 240.192 0 73.92 33.92 142.72 92.864 188.8l30.08 23.488-35.52 14.08c-160 63.552-263.36 214.784-263.36 385.28v87.36c0 12.032 9.984 21.888 22.208 21.888h454.656l-3.584-5.376a332.16 332.16 0 0 1-20.864-36.416l-0.96-1.92H74.24v-65.536c0-187.904 141.312-346.304 328.704-368.576l4.8-0.64 10.752-0.96a396.8 396.8 0 0 1 32.768-1.152h1.792c59.648-4.672 104.96-18.496 127.872-38.912l16.128-12.608a238.4 238.4 0 0 0 92.864-188.864c0-132.416-108.544-240.128-241.92-240.128z m0 436.8a197.312 197.312 0 0 1-197.76-196.608c0-108.416 88.768-196.544 197.76-196.544 109.056 0 197.76 88.128 197.76 196.544A197.504 197.504 0 0 1 448 468.736z"
          fill="#333333" p-id="15452"></path>
    <path d="M821.12 1004.48a37.248 37.248 0 0 1-27.136-11.648c-7.552-8.192-31.104-29.376-49.472-29.376-18.176 0-41.728 20.864-49.28 28.8a37.44 37.44 0 0 1-40.128 8.832l-0.256-0.064-63.168-35.2-0.32-0.192a35.008 35.008 0 0 1-12.288-41.856c0-0.128 5.248-12.416 5.248-23.232a60.928 60.928 0 0 0-60.8-60.8h-2.176c-13.056 0-23.04-10.432-26.24-27.072a316.032 316.032 0 0 1-5.376-50.112c0-21.056 4.736-47.232 5.312-50.112 3.2-16.704 13.056-27.136 25.92-27.136h2.56c33.472 0 60.8-27.328 60.8-60.8 0-9.92-4.416-20.992-5.248-23.232a34.112 34.112 0 0 1 11.52-41.28l1.152-0.768 65.344-35.84 0.192-0.128a35.456 35.456 0 0 1 14.144-2.944c10.176 0 20.48 4.352 26.944 11.2 9.344 9.472 31.488 27.584 48.448 27.584 21.44 0 47.872-26.88 48.192-27.136a37.568 37.568 0 0 1 40-8.32l0.256 0.064 64.32 35.584 0.192 0.192a34.88 34.88 0 0 1 12.352 41.792c-0.512 1.216-5.312 12.928-5.312 23.168 0 33.536 27.328 60.8 60.8 60.8h2.176c13.056 0 23.04 10.496 26.24 27.072 0.96 4.8 5.376 29.76 5.376 50.112 0 20.416-4.416 45.376-5.312 50.176-3.2 16.64-13.184 27.136-25.92 27.136h-2.56a60.928 60.928 0 0 0-60.8 60.8c0 9.28 3.648 19.2 5.248 23.104 6.4 14.528 1.472 32.32-11.52 41.28l-1.152 0.768-63.488 35.136-0.192 0.064a30.336 30.336 0 0 1-14.656 3.584z m-76.608-87.68c16.512 0 34.24 6.912 52.736 20.736 6.144 4.608 12.032 9.6 17.536 15.04l2.816 2.688 51.072-28.224-1.28-4.224a93.312 93.312 0 0 1-5.12-28.8c0-47.424 35.52-88 82.56-94.08l3.84-0.512 0.576-3.84c1.408-9.088 3.072-22.208 3.072-32.832 0-10.496-1.664-23.68-3.072-32.832l-0.64-3.84-3.84-0.512a95.168 95.168 0 0 1-82.496-94.144c0-11.072 2.752-21.696 5.12-28.8l1.28-4.096-50.496-28.032-2.816 2.56a157.568 157.568 0 0 1-17.28 14.08c-18.048 12.672-35.2 19.136-51.072 19.136-16 0-33.28-6.592-51.52-19.52a162.688 162.688 0 0 1-17.472-14.4l-2.752-2.624-52.48 28.8 1.344 4.16c2.368 6.912 5.12 17.664 5.12 28.608 0 47.552-35.52 88.064-82.56 94.208l-3.84 0.448-0.576 3.84a233.472 233.472 0 0 0-3.072 32.832c0 10.624 1.664 23.68 3.072 32.896l0.576 3.84 3.84 0.448c47.04 6.144 82.56 46.72 82.56 94.208 0 11.136-2.752 21.76-5.12 28.8l-1.28 4.032 49.088 27.52 2.816-2.752c5.44-5.248 11.264-10.176 17.344-14.656 18.496-13.44 36.032-20.16 52.416-20.16z"
          fill="#333333" p-id="15453"></path>
    <path d="M991.744 713.472c-2.688-14.4-10.944-23.296-21.696-23.296h-2.112c-36.16 0-65.536-29.44-65.536-65.536 0-11.84 5.632-24.832 5.76-25.088a30.208 30.208 0 0 0-10.88-36.096l-63.808-35.328a32.96 32.96 0 0 0-34.816 7.296c-0.32 0.32-27.968 28.544-51.456 28.544-23.552 0-51.52-28.672-51.84-28.992a33.216 33.216 0 0 0-35.968-7.104l-64.96 35.648-0.832 0.576a29.568 29.568 0 0 0-9.92 35.648c1.28 3.2 5.632 14.592 5.632 24.96 0 36.16-29.44 65.536-65.536 65.536h-2.56c-10.368 0-18.56 8.96-21.312 23.296-0.128 1.152-5.248 28.096-5.248 49.216 0 20.736 4.736 46.336 5.248 49.28 2.752 14.336 11.008 23.296 21.76 23.296h2.112c36.16 0 65.536 29.376 65.536 65.472 0 12.032-5.76 25.088-5.76 25.088a30.144 30.144 0 0 0 10.88 36.16l62.528 34.944a32.32 32.32 0 0 0 34.944-7.808c0.32-0.32 28.736-30.336 52.672-30.336 24.32 0 52.672 30.592 52.928 30.848 5.632 6.208 14.72 10.048 23.68 10.048a30.144 30.144 0 0 0 13.056-2.944l63.04-34.944 0.896-0.576a29.44 29.44 0 0 0 9.856-35.648 72.128 72.128 0 0 1-5.632-24.96c0-36.16 29.376-65.536 65.472-65.536h2.56c10.432 0 18.56-8.96 21.312-23.296 0.832-4.672 5.248-29.184 5.248-49.28 0-19.84-4.416-44.416-5.248-49.088z m-37.76 82.752l-1.216 7.36-7.36 0.96a90.496 90.496 0 0 0-78.528 89.536c0 10.432 2.624 20.544 4.8 27.2l2.624 7.808-57.536 31.808-5.248-5.12a170.752 170.752 0 0 0-17.024-14.592c-17.6-13.12-34.56-19.84-49.92-19.84s-32 6.592-49.6 19.456a172.16 172.16 0 0 0-16.896 14.272l-5.248 5.184-55.552-31.04 2.56-7.808c2.112-6.656 4.864-16.832 4.864-27.328 0-45.184-33.728-83.648-78.464-89.6l-7.36-0.896-1.088-7.296a243.968 243.968 0 0 1-3.2-33.664c0-10.944 1.664-24.32 3.2-33.472l1.088-7.36 7.36-0.896a90.496 90.496 0 0 0 78.464-89.6c0-10.432-2.624-20.48-4.8-27.2l-2.624-7.808 58.88-32.256 5.248 4.928c5.312 5.12 11.008 9.728 16.96 13.952 17.408 12.352 33.728 18.56 48.832 18.56 14.912 0 31.168-6.08 48.32-18.304 5.952-4.096 11.52-8.64 16.832-13.632l5.248-4.864 56.96 31.552-2.56 7.744a92.032 92.032 0 0 0-4.8 27.328c0 45.184 33.664 83.648 78.464 89.6l7.424 0.896 1.088 7.36c1.408 9.28 3.2 22.72 3.2 33.6a297.344 297.344 0 0 1-3.456 33.472z"
          fill="#333333" p-id="15454"></path>
    <path d="M744.64 854.016c-50.496 0-91.584-41.152-91.584-91.648 0-50.56 41.088-91.648 91.584-91.648a91.712 91.712 0 0 1 0 183.232z m0-139.52a48 48 0 0 0 0 95.744 48 48 0 0 0 47.936-47.872 48 48 0 0 0-47.936-47.872z"
          fill="#333333" p-id="15455"></path>
    <path d="M744.64 675.456a86.976 86.976 0 1 0 0.064 173.76 86.976 86.976 0 0 0 0-173.76z m0 139.52a52.608 52.608 0 1 1 0.128-105.152 52.608 52.608 0 0 1-0.128 105.216z"
          p-id="15456"></path>
</svg>